<svg xmlns="http://www.w3.org/2000/svg" xmlns:xlink="http://www.w3.org/1999/xlink" version="1.1" x="0px" y="0px" viewBox="0 0 100 125" style="enable-background:new 0 0 100 100;" xml:space="preserve"><title>Artboard 17</title><path d="M88.9,72.7c-2.7-11.4-10.4-21-21-25.9c9.7-10,9.7-25.8,0.1-35.9C63.3,5.9,56.8,3.1,50,3h-0.5C35.3,3.1,23.9,14.8,24.1,29.1  c0.1,6.5,2.6,12.8,7.1,17.6l0.3,0.3c-10.3,5-17.8,14.3-20.5,25.4c-1.3,4.4-0.4,9.2,2.4,12.8C20.7,94.5,39.8,97,50.3,97h0.5  c19.5,0,31.3-6.1,35.5-11.5C89.2,81.9,90.2,77.1,88.9,72.7z M28.1,28.4C28.2,16.6,37.8,7.1,49.6,7H50c5.7,0.1,11.2,2.5,15.1,6.6  c8.3,8.7,8,22.5-0.7,30.8c-4.1,3.9-9.5,6.1-15.2,6C43.5,50.4,38,48,34.1,43.9C30.1,39.7,27.9,34.1,28.1,28.4z M83.2,83  c-5.7,7.1-21.5,10.2-33.9,10h-0.1C37,92.8,22,89.6,16.5,82.7c-2.1-2.6-2.7-6.1-1.7-9.3c2.5-10.6,10-19.3,20-23.6  c4.2,3,9.2,4.6,14.3,4.7h0.5c5.3,0,10.6-1.7,14.9-4.8h0.1c10.3,4.2,17.9,13.1,20.5,24C86,76.9,85.3,80.4,83.2,83z"/><text x="0" y="115" fill="#000000" font-size="5px" font-weight="bold" font-family="'Helvetica Neue', Helvetica, Arial-Unicode, Arial, Sans-serif">Created by Cassandra Cappello</text><text x="0" y="120" fill="#000000" font-size="5px" font-weight="bold" font-family="'Helvetica Neue', Helvetica, Arial-Unicode, Arial, Sans-serif">from the Noun Project</text></svg>